<svg width="39" height="39" viewBox="0 0 39 39" fill="none" xmlns="http://www.w3.org/2000/svg">
<g clip-path="url(#clip0_17_57)">
<path d="M14.625 30.875C6.5 33.3125 6.5 26.8125 3.25 26M26 35.75V29.4613C26.061 28.6864 25.9563 27.9075 25.6929 27.1762C25.4295 26.4449 25.0135 25.7781 24.4725 25.22C29.575 24.6513 34.9375 22.7175 34.9375 13.845C34.9371 11.5762 34.0644 9.39447 32.5 7.75127C33.2408 5.76634 33.1884 3.57234 32.3537 1.62502C32.3537 1.62502 30.4363 1.05627 26 4.03002C22.2755 3.02061 18.3495 3.02061 14.625 4.03002C10.1887 1.05627 8.27125 1.62502 8.27125 1.62502C7.43661 3.57234 7.38423 5.76634 8.125 7.75127C6.54896 9.40666 5.67535 11.6081 5.6875 13.8938C5.6875 22.7013 11.05 24.635 16.1525 25.2688C15.6179 25.8212 15.2056 26.4801 14.9424 27.2024C14.6792 27.9247 14.5711 28.6944 14.625 29.4613V35.75" stroke="url(#paint0_linear_17_57)" stroke-width="4" stroke-linecap="round" stroke-linejoin="round"/>
</g>
<defs>
<linearGradient id="paint0_linear_17_57" x1="19.0938" y1="1.58148" x2="19.0938" y2="35.75" gradientUnits="userSpaceOnUse">
<stop stop-color="#920000"/>
<stop offset="1" stop-color="#4B0000"/>
</linearGradient>
<clipPath id="clip0_17_57">
<rect width="39" height="39" fill="white"/>
</clipPath>
</defs>
</svg>
