<svg width="38" height="39" viewBox="0 0 38 39" fill="none" xmlns="http://www.w3.org/2000/svg">
<path d="M27.7084 10.5625H27.7242M11.0834 3.25H26.9167C31.2889 3.25 34.8334 6.88769 34.8334 11.375V27.625C34.8334 32.1123 31.2889 35.75 26.9167 35.75H11.0834C6.7111 35.75 3.16669 32.1123 3.16669 27.625V11.375C3.16669 6.88769 6.7111 3.25 11.0834 3.25ZM25.3334 18.4762C25.5288 19.8286 25.3037 21.2099 24.6901 22.4234C24.0766 23.6369 23.1058 24.621 21.9159 25.2357C20.726 25.8504 19.3776 26.0643 18.0623 25.8471C16.7471 25.6299 15.5321 24.9926 14.5902 24.0259C13.6482 23.0591 13.0273 21.8122 12.8156 20.4623C12.604 19.1125 12.8125 17.7286 13.4114 16.5074C14.0103 15.2861 14.9691 14.2898 16.1516 13.6601C17.334 13.0305 18.6798 12.7995 19.9975 13C21.3416 13.2046 22.586 13.8474 23.5469 14.8335C24.5077 15.8196 25.134 17.0968 25.3334 18.4762Z" stroke="url(#paint0_linear_17_25)" stroke-width="4" stroke-linecap="round" stroke-linejoin="round"/>
<defs>
<linearGradient id="paint0_linear_17_25" x1="19" y1="3.25" x2="19" y2="35.75" gradientUnits="userSpaceOnUse">
<stop stop-color="#920000"/>
<stop offset="1" stop-color="#4B0000"/>
</linearGradient>
</defs>
</svg>
