<svg width="39" height="39" viewBox="0 0 39 39" fill="none" xmlns="http://www.w3.org/2000/svg">
<path d="M35.75 27.495V32.37C35.7519 32.8225 35.6591 33.2705 35.4778 33.6852C35.2965 34.0998 35.0306 34.4721 34.6971 34.778C34.3637 35.084 33.9699 35.3169 33.5412 35.4619C33.1125 35.6069 32.6582 35.6607 32.2075 35.62C27.2071 35.0766 22.4039 33.368 18.1838 30.6312C14.2575 28.1363 10.9287 24.8075 8.43376 20.8812C5.68748 16.6419 3.97841 11.8153 3.44501 6.79247C3.40441 6.34311 3.45781 5.89021 3.60183 5.46261C3.74584 5.03502 3.97732 4.64209 4.28151 4.30886C4.5857 3.97562 4.95595 3.70938 5.36867 3.52707C5.7814 3.34477 6.22757 3.2504 6.67876 3.24997H11.5538C12.3424 3.24221 13.1069 3.52148 13.7049 4.03571C14.3028 4.54995 14.6934 5.26408 14.8038 6.04497C15.0095 7.60508 15.3911 9.13691 15.9413 10.6112C16.1599 11.1929 16.2072 11.825 16.0776 12.4327C15.948 13.0403 15.6469 13.5982 15.21 14.04L13.1463 16.1037C15.4595 20.172 18.828 23.5404 22.8963 25.8537L24.96 23.79C25.4018 23.3531 25.9596 23.052 26.5673 22.9224C27.175 22.7928 27.8071 22.8401 28.3888 23.0587C29.8631 23.6089 31.3949 23.9905 32.955 24.1962C33.7444 24.3076 34.4653 24.7052 34.9806 25.3134C35.496 25.9216 35.7698 26.698 35.75 27.495Z" stroke="url(#paint0_linear_18_91)" stroke-width="4" stroke-linecap="round" stroke-linejoin="round"/>
<defs>
<linearGradient id="paint0_linear_18_91" x1="19.5914" y1="3.24982" x2="19.5914" y2="35.6332" gradientUnits="userSpaceOnUse">
<stop stop-color="#920000"/>
<stop offset="1" stop-color="#4B0000"/>
</linearGradient>
</defs>
</svg>
