<svg width="402" height="93" viewBox="0 0 402 93" fill="none" xmlns="http://www.w3.org/2000/svg">
<path d="M25.625 92.25C21 92.25 16.7708 91.0833 12.9375 88.75C9.14583 86.4167 6.125 83.2917 3.875 79.375C1.66667 75.4167 0.5625 71.0208 0.5625 66.1875L0.6875 26.25C0.6875 21.5 1.77083 17.2083 3.9375 13.375C6.10417 9.5 9.08333 6.39583 12.875 4.0625C16.7083 1.6875 20.9583 0.5 25.625 0.5C30.375 0.5 34.6042 1.64583 38.3125 3.9375C42.0625 6.22917 45.0417 9.33333 47.25 13.25C49.5 17.125 50.625 21.4583 50.625 26.25V32.125C50.625 32.4583 50.4583 32.625 50.125 32.625H35.75C35.4167 32.625 35.25 32.4583 35.25 32.125V26.25C35.25 23.4167 34.3333 20.9792 32.5 18.9375C30.6667 16.8958 28.375 15.875 25.625 15.875C22.5833 15.875 20.25 16.9167 18.625 19C17 21.0833 16.1875 23.5 16.1875 26.25V66.1875C16.1875 69.3125 17.1042 71.875 18.9375 73.875C20.7708 75.8333 23 76.8125 25.625 76.8125C28.375 76.8125 30.6667 75.7292 32.5 73.5625C34.3333 71.3542 35.25 68.8958 35.25 66.1875V60.25C35.25 59.9167 35.4167 59.75 35.75 59.75H50.25C50.5833 59.75 50.75 59.9167 50.75 60.25V66.1875C50.75 70.9792 49.625 75.3542 47.375 79.3125C45.0833 83.2292 42.0625 86.375 38.3125 88.75C34.5625 91.0833 30.3333 92.25 25.625 92.25ZM75.0625 91H60.5625C60.2292 91 60.0625 90.7917 60.0625 90.375L60.1875 2.4375C60.1875 2.10417 60.3958 1.9375 60.8125 1.9375H75.0625C75.4792 1.9375 75.6875 2.10417 75.6875 2.4375L75.5625 37.25H94.75V2.4375C94.75 2.10417 94.9167 1.9375 95.25 1.9375H109.5C109.917 1.9375 110.125 2.10417 110.125 2.4375L110.375 90.375C110.375 90.7917 110.167 91 109.75 91H95.375C94.9583 91 94.75 90.7917 94.75 90.375V52.75H75.5625V90.375C75.5625 90.7917 75.3958 91 75.0625 91ZM116.5 90.375L132.375 2.4375C132.458 2.10417 132.667 1.9375 133 1.9375H151.562C151.896 1.9375 152.104 2.10417 152.188 2.4375L167.438 90.375C167.479 90.7917 167.312 91 166.938 91H152.75C152.333 91 152.104 90.7917 152.062 90.375L150.688 81H133.25L131.875 90.375C131.833 90.7917 131.625 91 131.25 91H117C116.667 91 116.5 90.7917 116.5 90.375ZM141.562 31.375L135.812 67.3125H148.125L142.875 31.375L142.125 26.625L141.562 31.375ZM189.375 91H176.562C175.896 91 175.562 90.7083 175.562 90.125L175.438 2.9375C175.438 2.27083 175.771 1.9375 176.438 1.9375H188L209.625 52.375L209 2.9375C209 2.27083 209.375 1.9375 210.125 1.9375H222.812C223.312 1.9375 223.562 2.27083 223.562 2.9375L223.688 90.25C223.688 90.75 223.479 91 223.062 91H211.812L189.625 43.875L190.562 90C190.562 90.6667 190.167 91 189.375 91ZM258.375 90.875L235.438 91C235.021 91 234.812 90.7917 234.812 90.375L235.062 2.4375C235.062 2.10417 235.229 1.9375 235.562 1.9375L259.5 1.8125C264.25 1.6875 268.542 2.77083 272.375 5.0625C276.25 7.35417 279.333 10.4583 281.625 14.375C283.958 18.25 285.125 22.5417 285.125 27.25V64C285.125 68.9167 283.938 73.4167 281.562 77.5C279.146 81.5417 275.938 84.7708 271.938 87.1875C267.938 89.5625 263.417 90.7917 258.375 90.875ZM259.5 17.125L250.562 17.25L250.438 75.25H258.375C261.542 75.25 264.208 74.1458 266.375 71.9375C268.542 69.7292 269.625 67.0833 269.625 64V27.125C269.625 24.4167 268.625 22.0625 266.625 20.0625C264.625 18.0208 262.25 17.0417 259.5 17.125ZM290.875 90.375L306.75 2.4375C306.833 2.10417 307.042 1.9375 307.375 1.9375H325.938C326.271 1.9375 326.479 2.10417 326.562 2.4375L341.812 90.375C341.854 90.7917 341.688 91 341.312 91H327.125C326.708 91 326.479 90.7917 326.438 90.375L325.062 81H307.625L306.25 90.375C306.208 90.7917 306 91 305.625 91H291.375C291.042 91 290.875 90.7917 290.875 90.375ZM315.938 31.375L310.188 67.3125H322.5L317.25 31.375L316.5 26.625L315.938 31.375ZM364.812 91H350.312C349.979 91 349.812 90.7917 349.812 90.375L350.062 2.4375C350.062 2.10417 350.229 1.9375 350.562 1.9375H376.438C381.062 1.9375 385.312 3.0625 389.188 5.3125C393.062 7.5625 396.146 10.5833 398.438 14.375C400.771 18.1667 401.938 22.4583 401.938 27.25C401.938 30.375 401.458 33.2083 400.5 35.75C399.542 38.2917 398.417 40.4375 397.125 42.1875C395.875 43.9375 394.729 45.2292 393.688 46.0625C398.312 51.1875 400.625 57.2083 400.625 64.125L400.75 90.375C400.75 90.7917 400.542 91 400.125 91H385.625C385.292 91 385.125 90.875 385.125 90.625V64.125C385.125 61.0417 384.042 58.375 381.875 56.125C379.708 53.875 377.042 52.75 373.875 52.75H365.438L365.312 90.375C365.312 90.7917 365.146 91 364.812 91ZM376.438 17.25H365.438V37.375H376.438C379.062 37.375 381.396 36.3958 383.438 34.4375C385.521 32.4792 386.562 30.0833 386.562 27.25C386.562 24.5417 385.562 22.2083 383.562 20.25C381.562 18.25 379.188 17.25 376.438 17.25Z" fill="#D40000"/>
</svg>
