<svg width="253" height="67" viewBox="0 0 253 67" fill="none" xmlns="http://www.w3.org/2000/svg">
<path d="M12.0469 67H1.26562C0.953125 67 0.796875 66.8438 0.796875 66.5312L0.984375 0.578125C0.984375 0.328125 1.10938 0.203125 1.35938 0.203125H19.8281C25.7031 0.203125 30.3438 2 33.75 5.59375C37.1875 9.15625 38.9062 14.0156 38.9062 20.1719C38.9062 24.6719 38.0156 28.5938 36.2344 31.9375C34.4219 35.25 32.0781 37.8125 29.2031 39.625C26.3281 41.4375 23.2031 42.3438 19.8281 42.3438H12.5156V66.5312C12.5156 66.8438 12.3594 67 12.0469 67ZM19.8281 11.5938L12.5156 11.6875V30.7188H19.8281C21.8594 30.7188 23.625 29.75 25.125 27.8125C26.625 25.8438 27.375 23.2969 27.375 20.1719C27.375 17.6719 26.7031 15.625 25.3594 14.0312C24.0156 12.4062 22.1719 11.5938 19.8281 11.5938ZM56.6719 67H45.7969C45.5469 67 45.4219 66.8438 45.4219 66.5312L45.6094 0.578125C45.6094 0.328125 45.7344 0.203125 45.9844 0.203125H65.3906C68.8594 0.203125 72.0469 1.04688 74.9531 2.73438C77.8594 4.42188 80.1719 6.6875 81.8906 9.53125C83.6406 12.375 84.5156 15.5937 84.5156 19.1875C84.5156 21.5312 84.1562 23.6562 83.4375 25.5625C82.7188 27.4688 81.875 29.0781 80.9062 30.3906C79.9688 31.7031 79.1094 32.6719 78.3281 33.2969C81.7969 37.1406 83.5312 41.6562 83.5312 46.8438L83.625 66.5312C83.625 66.8438 83.4688 67 83.1562 67H72.2812C72.0312 67 71.9062 66.9062 71.9062 66.7188V46.8438C71.9062 44.5312 71.0938 42.5312 69.4688 40.8438C67.8438 39.1562 65.8438 38.3125 63.4688 38.3125H57.1406L57.0469 66.5312C57.0469 66.8438 56.9219 67 56.6719 67ZM65.3906 11.6875H57.1406V26.7812H65.3906C67.3594 26.7812 69.1094 26.0469 70.6406 24.5781C72.2031 23.1094 72.9844 21.3125 72.9844 19.1875C72.9844 17.1563 72.2344 15.4062 70.7344 13.9375C69.2344 12.4375 67.4531 11.6875 65.3906 11.6875ZM86.5312 66.5312L98.4375 0.578125C98.5 0.328125 98.6562 0.203125 98.9062 0.203125H112.828C113.078 0.203125 113.234 0.328125 113.297 0.578125L124.734 66.5312C124.766 66.8438 124.641 67 124.359 67H113.719C113.406 67 113.234 66.8438 113.203 66.5312L112.172 59.5H99.0938L98.0625 66.5312C98.0312 66.8438 97.875 67 97.5938 67H86.9062C86.6562 67 86.5312 66.8438 86.5312 66.5312ZM105.328 22.2812L101.016 49.2344H110.25L106.312 22.2812L105.75 18.7188L105.328 22.2812ZM141.188 67H131.578C131.078 67 130.828 66.7812 130.828 66.3438L130.734 0.953125C130.734 0.453125 130.984 0.203125 131.484 0.203125H140.156L156.375 38.0312L155.906 0.953125C155.906 0.453125 156.188 0.203125 156.75 0.203125H166.266C166.641 0.203125 166.828 0.453125 166.828 0.953125L166.922 66.4375C166.922 66.8125 166.766 67 166.453 67H158.016L141.375 31.6562L142.078 66.25C142.078 66.75 141.781 67 141.188 67ZM172.031 66.5312L183.938 0.578125C184 0.328125 184.156 0.203125 184.406 0.203125H198.328C198.578 0.203125 198.734 0.328125 198.797 0.578125L210.234 66.5312C210.266 66.8438 210.141 67 209.859 67H199.219C198.906 67 198.734 66.8438 198.703 66.5312L197.672 59.5H184.594L183.562 66.5312C183.531 66.8438 183.375 67 183.094 67H172.406C172.156 67 172.031 66.8438 172.031 66.5312ZM190.828 22.2812L186.516 49.2344H195.75L191.812 22.2812L191.25 18.7188L190.828 22.2812ZM238.641 67H227.016C226.734 67 226.578 66.8438 226.547 66.5312L213.281 0.578125C213.219 0.328125 213.344 0.203125 213.656 0.203125H224.531C224.781 0.203125 224.938 0.328125 225 0.578125L232.875 44.5469L240.562 0.578125C240.625 0.328125 240.781 0.203125 241.031 0.203125H251.766C252.109 0.203125 252.234 0.328125 252.141 0.578125L239.109 66.5312C239.078 66.8438 238.922 67 238.641 67Z" fill="white"/>
</svg>
