<svg width="174" height="18" viewBox="0 0 174 18" fill="none" xmlns="http://www.w3.org/2000/svg">
<path d="M5.02734 17.2344C4.17578 17.2344 3.39062 17.0156 2.67188 16.5781C1.96094 16.1406 1.39062 15.5586 0.960938 14.832C0.539062 14.0977 0.328125 13.293 0.328125 12.418V11.3164C0.328125 11.2305 0.367188 11.1875 0.445312 11.1875H3.14062C3.20312 11.1875 3.23438 11.2305 3.23438 11.3164V12.418C3.23438 12.9414 3.41016 13.3945 3.76172 13.7773C4.11328 14.1523 4.53516 14.3398 5.02734 14.3398C5.52734 14.3398 5.95312 14.1484 6.30469 13.7656C6.65625 13.375 6.83203 12.9258 6.83203 12.418C6.83203 11.832 6.44922 11.3203 5.68359 10.8828C5.55859 10.8047 5.39453 10.7109 5.19141 10.6016C4.99609 10.4844 4.76172 10.3516 4.48828 10.2031C4.21484 10.0547 3.94922 9.91016 3.69141 9.76953C3.43359 9.62109 3.18359 9.48047 2.94141 9.34766C2.06641 8.83203 1.41406 8.1875 0.984375 7.41406C0.5625 6.63281 0.351562 5.75781 0.351562 4.78906C0.351562 3.89844 0.570312 3.09375 1.00781 2.375C1.44531 1.66406 2.01562 1.10156 2.71875 0.6875C3.42969 0.265625 4.19922 0.0546875 5.02734 0.0546875C5.87891 0.0546875 6.66016 0.265625 7.37109 0.6875C8.08203 1.11719 8.64844 1.6875 9.07031 2.39844C9.5 3.10938 9.71484 3.90625 9.71484 4.78906V6.75781C9.71484 6.82031 9.68359 6.85156 9.62109 6.85156H6.92578C6.86328 6.85156 6.83203 6.82031 6.83203 6.75781L6.80859 4.78906C6.80859 4.22656 6.63281 3.76953 6.28125 3.41797C5.92969 3.06641 5.51172 2.89062 5.02734 2.89062C4.53516 2.89062 4.11328 3.07812 3.76172 3.45312C3.41016 3.82812 3.23438 4.27344 3.23438 4.78906C3.23438 5.3125 3.34375 5.75 3.5625 6.10156C3.78906 6.45312 4.19922 6.78906 4.79297 7.10938C4.85547 7.14062 5 7.21875 5.22656 7.34375C5.45312 7.46875 5.70312 7.60938 5.97656 7.76562C6.25781 7.91406 6.51172 8.05078 6.73828 8.17578C6.96484 8.29297 7.10156 8.36328 7.14844 8.38672C7.94531 8.83203 8.57422 9.37891 9.03516 10.0273C9.50391 10.6758 9.73828 11.4727 9.73828 12.418C9.73828 13.332 9.52734 14.1523 9.10547 14.8789C8.67578 15.6055 8.10547 16.1797 7.39453 16.6016C6.68359 17.0234 5.89453 17.2344 5.02734 17.2344ZM15.8438 17.2344C14.9922 17.2344 14.207 17.0156 13.4883 16.5781C12.7773 16.1406 12.2031 15.5586 11.7656 14.832C11.3359 14.0977 11.1211 13.293 11.1211 12.418L11.1445 4.8125C11.1445 3.92188 11.3594 3.12109 11.7891 2.41016C12.2109 1.69141 12.7812 1.11719 13.5 0.6875C14.2188 0.25 15 0.03125 15.8438 0.03125C16.7188 0.03125 17.5039 0.246094 18.1992 0.675781C18.9023 1.10547 19.4648 1.68359 19.8867 2.41016C20.3164 3.12891 20.5312 3.92969 20.5312 4.8125L20.5547 12.418C20.5547 13.293 20.3438 14.0938 19.9219 14.8203C19.4922 15.5547 18.9219 16.1406 18.2109 16.5781C17.5 17.0156 16.7109 17.2344 15.8438 17.2344ZM15.8438 14.3398C16.3281 14.3398 16.75 14.1445 17.1094 13.7539C17.4688 13.3555 17.6484 12.9102 17.6484 12.418L17.625 4.8125C17.625 4.28125 17.457 3.83203 17.1211 3.46484C16.7852 3.09766 16.3594 2.91406 15.8438 2.91406C15.3516 2.91406 14.9297 3.09375 14.5781 3.45312C14.2266 3.8125 14.0508 4.26562 14.0508 4.8125V12.418C14.0508 12.9414 14.2266 13.3945 14.5781 13.7773C14.9297 14.1523 15.3516 14.3398 15.8438 14.3398ZM25.1836 17H22.4883C22.4102 17 22.3711 16.9609 22.3711 16.8828L22.418 0.394531C22.418 0.332031 22.4492 0.300781 22.5117 0.300781H30.1992C30.2773 0.300781 30.3164 0.332031 30.3164 0.394531V3.10156C30.3164 3.16406 30.2852 3.19531 30.2227 3.19531H25.3008V6.92188H30.2227C30.2852 6.92188 30.3164 6.96094 30.3164 7.03906L30.3398 9.75781C30.3398 9.82031 30.3008 9.85156 30.2227 9.85156H25.3008V16.8828C25.3008 16.9609 25.2617 17 25.1836 17ZM37.5938 17H34.8867C34.8164 17 34.7812 16.9609 34.7812 16.8828V3.19531H31.6641C31.5859 3.19531 31.5469 3.15625 31.5469 3.07812L31.5703 0.394531C31.5703 0.332031 31.6016 0.300781 31.6641 0.300781H40.7812C40.8672 0.300781 40.9102 0.332031 40.9102 0.394531V3.07812C40.9102 3.15625 40.8789 3.19531 40.8164 3.19531H37.6641L37.6875 16.8828C37.6875 16.9609 37.6562 17 37.5938 17ZM47.2031 17H44.2969C44.2266 17 44.1875 16.9609 44.1797 16.8828L41.3438 0.394531C41.3281 0.332031 41.3516 0.300781 41.4141 0.300781H44.1094C44.1719 0.300781 44.2109 0.332031 44.2266 0.394531L45.7617 11.2344L47.3438 0.394531C47.3594 0.332031 47.4062 0.300781 47.4844 0.300781H49.6523C49.7148 0.300781 49.7539 0.332031 49.7695 0.394531L51.3281 11.2344L52.8867 0.394531C52.9023 0.332031 52.9414 0.300781 53.0039 0.300781H55.6758C55.7539 0.300781 55.7852 0.332031 55.7695 0.394531L52.9102 16.8828C52.9023 16.9141 52.8789 16.9414 52.8398 16.9648L52.793 17H49.8867C49.8398 17 49.8008 16.9609 49.7695 16.8828L48.5391 8.26953L47.3203 16.8828C47.3125 16.9609 47.2734 17 47.2031 17ZM56.3672 16.8828L59.3438 0.394531C59.3594 0.332031 59.3984 0.300781 59.4609 0.300781H62.9414C63.0039 0.300781 63.043 0.332031 63.0586 0.394531L65.918 16.8828C65.9258 16.9609 65.8945 17 65.8242 17H63.1641C63.0859 17 63.043 16.9609 63.0352 16.8828L62.7773 15.125H59.5078L59.25 16.8828C59.2422 16.9609 59.2031 17 59.1328 17H56.4609C56.3984 17 56.3672 16.9609 56.3672 16.8828ZM61.0664 5.82031L59.9883 12.5586H62.2969L61.3125 5.82031L61.1719 4.92969L61.0664 5.82031ZM70.2305 17H67.5117C67.4492 17 67.418 16.9609 67.418 16.8828L67.4648 0.394531C67.4648 0.332031 67.4961 0.300781 67.5586 0.300781H72.4102C73.2773 0.300781 74.0742 0.511719 74.8008 0.933594C75.5273 1.35547 76.1055 1.92187 76.5352 2.63281C76.9727 3.34375 77.1914 4.14844 77.1914 5.04688C77.1914 5.63281 77.1016 6.16406 76.9219 6.64062C76.7422 7.11719 76.5312 7.51953 76.2891 7.84766C76.0547 8.17578 75.8398 8.41797 75.6445 8.57422C76.5117 9.53516 76.9453 10.6641 76.9453 11.9609L76.9688 16.8828C76.9688 16.9609 76.9297 17 76.8516 17H74.1328C74.0703 17 74.0391 16.9766 74.0391 16.9297V11.9609C74.0391 11.3828 73.8359 10.8828 73.4297 10.4609C73.0234 10.0391 72.5234 9.82812 71.9297 9.82812H70.3477L70.3242 16.8828C70.3242 16.9609 70.293 17 70.2305 17ZM72.4102 3.17188H70.3477V6.94531H72.4102C72.9023 6.94531 73.3398 6.76172 73.7227 6.39453C74.1133 6.02734 74.3086 5.57812 74.3086 5.04688C74.3086 4.53906 74.1211 4.10156 73.7461 3.73438C73.3711 3.35938 72.9258 3.17188 72.4102 3.17188ZM86.8477 17H79.0898C79.0273 17 78.9961 16.9609 78.9961 16.8828L79.0195 0.394531C79.0195 0.332031 79.0508 0.300781 79.1133 0.300781H86.8242C86.8867 0.300781 86.918 0.339844 86.918 0.417969V3.10156C86.918 3.16406 86.8867 3.19531 86.8242 3.19531H81.9023V6.94531H86.8242C86.8867 6.94531 86.918 6.97656 86.918 7.03906L86.9414 9.75781C86.9414 9.82031 86.9102 9.85156 86.8477 9.85156H81.9023V14.0469H86.8477C86.9102 14.0469 86.9414 14.0859 86.9414 14.1641V16.9062C86.9414 16.9688 86.9102 17 86.8477 17ZM103.16 17H95.4023C95.3398 17 95.3086 16.9609 95.3086 16.8828L95.332 0.394531C95.332 0.332031 95.3633 0.300781 95.4258 0.300781H103.137C103.199 0.300781 103.23 0.339844 103.23 0.417969V3.10156C103.23 3.16406 103.199 3.19531 103.137 3.19531H98.2148V6.94531H103.137C103.199 6.94531 103.23 6.97656 103.23 7.03906L103.254 9.75781C103.254 9.82031 103.223 9.85156 103.16 9.85156H98.2148V14.0469H103.16C103.223 14.0469 103.254 14.0859 103.254 14.1641V16.9062C103.254 16.9688 103.223 17 103.16 17ZM108 17H105.598C105.473 17 105.41 16.9453 105.41 16.8359L105.387 0.488281C105.387 0.363281 105.449 0.300781 105.574 0.300781H107.742L111.797 9.75781L111.68 0.488281C111.68 0.363281 111.75 0.300781 111.891 0.300781H114.27C114.363 0.300781 114.41 0.363281 114.41 0.488281L114.434 16.8594C114.434 16.9531 114.395 17 114.316 17H112.207L108.047 8.16406L108.223 16.8125C108.223 16.9375 108.148 17 108 17ZM120.914 17.2344C120.047 17.2344 119.266 17.0195 118.57 16.5898C117.867 16.1602 117.301 15.582 116.871 14.8555C116.449 14.1289 116.238 13.3164 116.238 12.418V4.8125C116.238 3.9375 116.453 3.14062 116.883 2.42188C117.305 1.69531 117.871 1.11719 118.582 0.6875C119.293 0.25 120.07 0.03125 120.914 0.03125C121.797 0.03125 122.594 0.242188 123.305 0.664062C124.016 1.09375 124.578 1.66797 124.992 2.38672C125.414 3.10547 125.625 3.91406 125.625 4.8125V5.91406C125.625 5.97656 125.586 6.00781 125.508 6.00781H122.812C122.75 6.00781 122.719 5.97656 122.719 5.91406V5C122.719 4.39062 122.547 3.88672 122.203 3.48828C121.859 3.08984 121.43 2.89062 120.914 2.89062C120.453 2.89062 120.043 3.08203 119.684 3.46484C119.324 3.84766 119.145 4.29688 119.145 4.8125V12.418C119.145 12.9414 119.32 13.3945 119.672 13.7773C120.023 14.1523 120.438 14.3398 120.914 14.3398C121.43 14.3398 121.859 14.1562 122.203 13.7891C122.547 13.4141 122.719 12.957 122.719 12.418V11.2344H121.043C120.957 11.2344 120.914 11.1953 120.914 11.1172V8.43359C120.914 8.35547 120.957 8.31641 121.043 8.31641H125.531C125.594 8.31641 125.625 8.35547 125.625 8.43359V12.418C125.625 13.3164 125.414 14.1289 124.992 14.8555C124.562 15.582 123.996 16.1602 123.293 16.5898C122.59 17.0195 121.797 17.2344 120.914 17.2344ZM130.16 17H127.441C127.363 17 127.324 16.9609 127.324 16.8828L127.348 0.394531C127.348 0.332031 127.379 0.300781 127.441 0.300781H130.137C130.199 0.300781 130.23 0.332031 130.23 0.394531L130.254 16.8828C130.254 16.9609 130.223 17 130.16 17ZM134.977 17H132.574C132.449 17 132.387 16.9453 132.387 16.8359L132.363 0.488281C132.363 0.363281 132.426 0.300781 132.551 0.300781H134.719L138.773 9.75781L138.656 0.488281C138.656 0.363281 138.727 0.300781 138.867 0.300781H141.246C141.34 0.300781 141.387 0.363281 141.387 0.488281L141.41 16.8594C141.41 16.9531 141.371 17 141.293 17H139.184L135.023 8.16406L135.199 16.8125C135.199 16.9375 135.125 17 134.977 17ZM151.348 17H143.59C143.527 17 143.496 16.9609 143.496 16.8828L143.52 0.394531C143.52 0.332031 143.551 0.300781 143.613 0.300781H151.324C151.387 0.300781 151.418 0.339844 151.418 0.417969V3.10156C151.418 3.16406 151.387 3.19531 151.324 3.19531H146.402V6.94531H151.324C151.387 6.94531 151.418 6.97656 151.418 7.03906L151.441 9.75781C151.441 9.82031 151.41 9.85156 151.348 9.85156H146.402V14.0469H151.348C151.41 14.0469 151.441 14.0859 151.441 14.1641V16.9062C151.441 16.9688 151.41 17 151.348 17ZM161.426 17H153.668C153.605 17 153.574 16.9609 153.574 16.8828L153.598 0.394531C153.598 0.332031 153.629 0.300781 153.691 0.300781H161.402C161.465 0.300781 161.496 0.339844 161.496 0.417969V3.10156C161.496 3.16406 161.465 3.19531 161.402 3.19531H156.48V6.94531H161.402C161.465 6.94531 161.496 6.97656 161.496 7.03906L161.52 9.75781C161.52 9.82031 161.488 9.85156 161.426 9.85156H156.48V14.0469H161.426C161.488 14.0469 161.52 14.0859 161.52 14.1641V16.9062C161.52 16.9688 161.488 17 161.426 17ZM166.465 17H163.746C163.684 17 163.652 16.9609 163.652 16.8828L163.699 0.394531C163.699 0.332031 163.73 0.300781 163.793 0.300781H168.645C169.512 0.300781 170.309 0.511719 171.035 0.933594C171.762 1.35547 172.34 1.92187 172.77 2.63281C173.207 3.34375 173.426 4.14844 173.426 5.04688C173.426 5.63281 173.336 6.16406 173.156 6.64062C172.977 7.11719 172.766 7.51953 172.523 7.84766C172.289 8.17578 172.074 8.41797 171.879 8.57422C172.746 9.53516 173.18 10.6641 173.18 11.9609L173.203 16.8828C173.203 16.9609 173.164 17 173.086 17H170.367C170.305 17 170.273 16.9766 170.273 16.9297V11.9609C170.273 11.3828 170.07 10.8828 169.664 10.4609C169.258 10.0391 168.758 9.82812 168.164 9.82812H166.582L166.559 16.8828C166.559 16.9609 166.527 17 166.465 17ZM168.645 3.17188H166.582V6.94531H168.645C169.137 6.94531 169.574 6.76172 169.957 6.39453C170.348 6.02734 170.543 5.57812 170.543 5.04688C170.543 4.53906 170.355 4.10156 169.98 3.73438C169.605 3.35938 169.16 3.17188 168.645 3.17188Z" fill="white"/>
</svg>
